# xmcd
#
# Track frame offsets: 
#        150
#        17047
#        34095
#        51042
#
# Disc length: 903 seconds
#
# Revision: 0
# Processed by: cddbd v1.5.2PL0 Copyright (c) Steve Scherf et al.
# Submitted via: ExactAudioCopy v1.1
#
DISCID=28038504
DTITLE=石川 さゆり - 津軽海峡・冬景色
DYEAR=1991
DGENRE=JPop
TTITLE0=津軽海峡・冬景色
TTITLE1=津軽海峡・冬景色 (オリジナル・カラオケ)
TTITLE2=能登半島
TTITLE3=能登半島 (オリジナル・カラオケ)
EXTD=
EXTT0=
EXTT1=
EXTT2=
EXTT3=
PLAYORDER=
